<?xml version="1.0" encoding="UTF-8" standalone="no"?><!--Created with Inkscape (http://www.inkscape.org/)--><svg version="1.1" id="svg1" width="645.11621" height="139.715" viewBox="0 0 645.11621 139.71499" xmlns="http://www.w3.org/2000/svg" xmlns:svg="http://www.w3.org/2000/svg"><defs id="defs1"/><g id="layer-MC0" transform="translate(-26.357985,-58.494476)"><path id="path1" d="m 57.547879,182.2188 v 13.82635 H 28.111153 V 61.230901 h 29.436726 v 75.673189 l 4.430377,-8.20661 29.942201,-52.540079 v -14.9265 H 121.35718 V 196.04515 H 91.920457 v -69.81558 l 0.08921,-5.35214 -4.69798,8.89048 z m 86.697091,13.82635 V 96.287361 h 27.68243 v 35.770079 h 22.00319 V 96.287361 h 27.68243 V 196.04515 H 193.93059 V 153.6741 H 171.9274 v 42.37105 z m 97.6987,0 V 96.287361 h 50.28031 c 6.19955,0 11.15028,0.68388 14.83732,2.05166 3.70187,1.35289 7.01722,4.133029 9.93116,8.355269 2.91396,4.20737 4.37092,9.20268 4.37092,14.98596 0,9.1581 -4.1256,16.20506 -12.36938,21.14092 10.20622,4.93585 15.31304,12.93432 15.31304,23.99539 0,8.56341 -2.49021,15.58066 -7.46323,21.05173 -4.98047,5.45619 -11.87876,8.17686 -20.69491,8.17686 z m 29.46647,-61.04405 h 15.1049 c 3.21129,0 5.53055,-0.69873 6.95778,-2.11111 1.44211,-1.40494 2.17058,-3.9918 2.17058,-7.76059 0,-2.7504 -0.46087,-5.21089 -1.36778,-7.37405 -0.91431,-2.17803 -3.50117,-3.27075 -7.76058,-3.27075 h -15.1049 z m 0,39.51659 h 16.47267 c 3.80596,0 6.3631,-0.92175 7.67139,-2.76528 1.3083,-1.84351 1.96246,-4.63851 1.96246,-8.385 0,-3.62755 -0.69876,-6.40769 -2.08138,-8.35527 -1.36779,-1.94015 -3.88774,-2.91394 -7.55247,-2.91394 h -16.47267 z m 144.50013,-23.69805 h -52.00488 v 5.53054 c 0,8.96481 1.20423,14.95622 3.62757,17.9891 2.41587,3.01801 5.58998,4.51959 9.5149,4.51959 8.44446,0 13.18703,-5.68665 14.24261,-17.06736 l 24.6198,1.5759 c -4.38577,23.17771 -17.49849,34.75913 -39.33816,34.75913 -13.48442,0 -23.7278,-4.57905 -30.74503,-13.73714 -7.00239,-9.1581 -10.49612,-21.39365 -10.49612,-36.72158 0,-17.32009 3.70188,-30.54431 11.12052,-39.66524 7.43353,-9.113499 17.40188,-13.677669 29.91247,-13.677669 11.25435,0 20.6652,4.0364 28.21765,12.101759 7.55244,8.0728 11.32867,22.8655 11.32867,44.39297 z m -26.10651,-16.11587 c 0.0743,-1.16705 0.119,-2.08882 0.119,-2.76527 0,-12.82281 -4.32629,-19.23794 -12.96405,-19.23794 -8.50393,0 -12.8005,7.33688 -12.87485,22.00321 z m 116.31967,-1.6651 -25.69025,0.98121 c -0.40139,-6.1252 -1.39006,-10.74142 -2.97341,-13.85607 -1.56846,-3.1295 -4.2148,-4.69798 -7.93898,-4.69798 -9.29933,0 -13.9453,9.81224 -13.9453,29.43673 0,11.38071 1.12992,19.342 3.38969,23.87645 2.2598,4.54189 5.61976,6.80911 10.07986,6.80911 6.93548,0 10.73401,-6.15496 11.38814,-18.46485 l 25.69025,1.69482 c -2.28212,26.21059 -15.23871,39.30845 -38.86244,39.30845 -12.77078,0 -22.53841,-4.32632 -29.31776,-12.99378 -6.76453,-8.66006 -10.13935,-21.54235 -10.13935,-38.65429 0,-16.98559 3.54579,-29.91991 10.6448,-38.80296 7.09159,-8.897929 17.06737,-13.350599 29.91248,-13.350599 23.14796,0 35.74034,12.904589 37.76227,38.713759 z m 2.49764,-71.807769 h 83.52299 v 25.30369 H 564.75899 V 196.04515 H 535.32226 V 86.534591 h -26.70119 z m 160.98768,84.950219 c 0,34.63275 -13.42494,51.94542 -40.25992,51.94542 -26.9019,0 -40.34915,-17.31267 -40.34915,-51.94542 0,-34.56586 13.44725,-51.856209 40.34915,-51.856209 26.83498,0 40.25992,17.290349 40.25992,51.856209 z m -28.57444,0 c 0,-12.70388 -0.87717,-21.29702 -2.61659,-25.77943 -1.7246,-4.47498 -4.75002,-6.71989 -9.06889,-6.71989 -4.18509,0 -7.19565,2.12598 -9.03916,6.36308 -1.82864,4.24453 -2.73554,12.95662 -2.73554,26.13624 0,12.17609 0.78051,20.62801 2.34897,25.36316 1.58337,4.74258 4.72775,7.10644 9.42573,7.10644 4.51957,0 7.58962,-2.349 9.21755,-7.04698 1.6428,-4.69797 2.46793,-13.17218 2.46793,-25.42262 z m 0,0" style="fill:#002760;fill-opacity:1;fill-rule:nonzero;stroke:none;stroke-width:2.54507" aria-label=" ИнвесТо"/></g></svg>